<svg xmlns="http://www.w3.org/2000/svg" viewBox="0 0 24 24" width="24" height="24">
  <path fill="#25D366" d="M17.472 14.382c-.297-.149-1.758-.867-2.03-.967-.273-.099-.471-.148-.67.15-.197.297-.767.966-.94 1.164-.173.199-.347.223-.644.075-.297-.15-1.255-.463-2.39-1.475-.883-.788-1.48-1.761-1.653-2.059-.173-.297-.018-.458.13-.606.134-.133.298-.347.446-.52.149-.174.198-.298.298-.497.099-.198.05-.371-.025-.52-.075-.149-.669-1.612-.916-2.207-.242-.579-.487-.5-.669-.51-.173-.008-.371-.01-.57-.01-.198 0-.52.074-.792.372-.272.297-1.04 1.016-1.04 2.479 0 1.462 1.065 2.875 1.213 3.074.149.198 2.096 3.2 5.077 4.487.709.306 1.262.489 1.694.625.712.227 1.36.195 1.871.118.571-.085 1.758-.719 2.006-1.413.248-.694.248-1.289.173-1.413-.074-.124-.272-.198-.57-.347m-5.421 7.403h-.004c-1.798 0-3.558-.48-5.097-1.387l-.367-.22-3.795.998 1.015-3.706-.24-.38c-1.01-1.608-1.546-3.471-1.545-5.384 0-5.574 4.54-10.111 10.125-10.111 2.704 0 5.242 1.053 7.15 2.965 1.909 1.911 2.961 4.451 2.959 7.15.002 5.575-4.537 10.112-10.111 10.112zm.004-21.5C7.215.406 1.94 5.683 1.941 12.142c0 2.05.536 4.046 1.557 5.814L2 24.004l6.217-1.631c1.7.928 3.615 1.416 5.556 1.417 4.929 0 8.959-4.012 8.962-8.94 0-2.387-.929-4.634-2.618-6.324-1.687-1.696-3.931-2.629-6.321-2.629z"/>
</svg>